<svg width="180" height="180" viewBox="0 0 180 180" fill="none" xmlns="http://www.w3.org/2000/svg">
<path d="M89.55 179.1C139.007 179.1 179.1 139.007 179.1 89.55C179.1 40.0929 139.007 0 89.55 0C40.0929 0 0 40.0929 0 89.55C0 139.007 40.0929 179.1 89.55 179.1Z" fill="none"/>
<path d="M92.1366 124.574L95.1216 115.022C95.9176 112.634 97.7086 110.843 100.097 110.047C115.42 105.47 126.564 91.341 126.564 74.824C126.564 53.531 108.654 36.417 86.9626 38.009C68.8536 39.203 54.1276 53.929 52.7346 72.237C51.5406 89.948 62.8836 105.47 78.8036 110.246C81.1916 111.042 82.9826 112.833 83.7786 115.221L86.7636 124.773C70.4456 125.171 57.7096 128.753 57.7096 133.131C57.7096 137.708 71.8386 141.489 89.3506 141.489C106.863 141.489 120.992 137.708 120.992 133.131C121.191 128.554 108.455 124.773 92.1366 124.574V124.574ZM73.6296 74.824C73.6296 66.068 80.7936 58.904 89.5496 58.904C98.3056 58.904 105.47 66.068 105.47 74.824C105.47 83.58 98.3056 90.744 89.5496 90.744C80.7936 90.744 73.6296 83.381 73.6296 74.824Z" fill="red"/>
</svg>
