<svg width="50" height="50" viewBox="0 0 84 123" fill="none" xmlns="http://www.w3.org/2000/svg">
<path d="M44.82 2.27998C49.9 23.97 56.85 32.53 64.43 41.86C69.33 47.9 74.49 54.25 79.62 64.33C80.93 66.91 82.01 69.58 82.76 72.39C83.52 75.23 83.95 78.18 83.95 81.26C83.95 86.94 82.91 92.25 80.84 97.18C78.77 102.09 75.68 106.58 71.57 110.64C67.45 114.69 62.92 117.75 57.97 119.8C53.01 121.85 47.67 122.88 41.96 122.88C36.25 122.88 30.92 121.85 25.97 119.8C21.04 117.76 16.52 114.7 12.4 110.64C8.29 106.58 5.19 102.09 3.12 97.18C1.04 92.25 0 86.94 0 81.26C0 78.35 0.38 75.56 1.06 72.87C1.73 70.23 2.7 67.69 3.9 65.21C8.92 54.83 14.19 48.37 19.26 42.14C26.87 32.8 34.05 24 39.05 2.28998C39.41 0.699978 41 -0.290022 42.59 0.0699783C43.74 0.339978 44.57 1.21998 44.82 2.27998ZM20.52 70.91C22.62 70.72 24.47 72.27 24.65 74.36C25.13 79.42 26.24 84.08 28.35 88.1C30.39 91.98 33.43 95.33 37.83 97.9C39.64 98.96 40.25 101.3 39.19 103.11C38.13 104.92 35.79 105.53 33.99 104.47C28.26 101.12 24.3 96.76 21.61 91.65C18.91 86.51 17.62 80.79 17.07 75.05C16.88 72.96 18.44 71.1 20.52 70.91ZM59.85 45.59C53.17 37.36 46.95 29.71 41.95 14.15C36.93 29.81 30.55 37.65 23.85 45.87C18.99 51.83 13.95 58.01 9.23 67.78C8.21 69.88 7.38 72.06 6.81 74.33C6.25 76.55 5.93 78.85 5.93 81.26C5.93 86.18 6.81 90.72 8.56 94.89C10.32 99.07 12.99 102.92 16.54 106.43C20.11 109.95 24.01 112.59 28.24 114.34C32.45 116.08 37.02 116.96 41.96 116.96C46.92 116.96 51.51 116.08 55.73 114.34C59.95 112.59 63.86 109.95 67.43 106.43C70.98 102.92 73.64 99.07 75.4 94.89C77.15 90.73 78.03 86.19 78.03 81.26C78.03 78.69 77.68 76.26 77.05 73.92C76.41 71.55 75.49 69.26 74.35 67.02C69.47 57.44 64.54 51.37 59.85 45.59Z" fill="#216EBF"/>
</svg>
