<svg width="123" height="123" viewBox="0 0 123 123" fill="none" xmlns="http://www.w3.org/2000/svg">
<path fill-rule="evenodd" clip-rule="evenodd" d="M34.2499 65.71L91.0499 8.90998C94.0399 5.91998 98.1099 4.50998 102.19 4.59998C106.39 4.67998 110.61 6.33998 113.71 9.43998C116.75 12.48 118.27 16.49 118.27 20.51C118.27 24.52 116.75 28.54 113.71 31.58L107.21 38.08L100.59 31.46L97.3299 34.72L103.95 41.34L95.1799 50.11L91.5399 46.47L88.2799 49.73L91.9199 53.37L83.3399 61.95L76.7199 55.33L73.4599 58.59L80.0799 65.21L71.3099 73.98L67.6699 70.34L64.4099 73.6L68.0499 77.24L59.4699 85.82L52.8499 79.2L49.5899 82.46L56.1799 89.05C50.9499 93.81 49.4599 94.12 46.2399 94.8C44.8299 95.1 43.1199 95.46 40.7199 96.19C33.9799 98.25 26.4699 106.26 20.5899 112.55C19.1999 114.03 17.9099 115.41 16.6199 116.71C14.4999 118.23 12.1799 118.26 10.1699 117.42C9.00988 116.93 7.93988 116.17 7.05988 115.23C6.15988 114.28 5.45988 113.17 5.03988 112C4.31988 110.01 4.43988 107.83 5.86988 106.08C7.04988 104.9 8.35988 103.66 9.81988 102.29C16.0799 96.41 24.7699 88.23 26.5099 82.22C27.0999 80.19 27.4399 78.56 27.7399 77.11C28.5699 73.14 29.0899 70.63 34.1999 65.76L34.2499 65.71ZM22.6199 104.1L22.1899 103.67L101.87 24C102.77 23.1 102.77 21.64 101.87 20.74C100.97 19.84 99.5099 19.84 98.6099 20.74L18.9399 100.41L18.7699 100.24C18.6499 100.12 18.4499 100.12 18.3299 100.24L9.84988 108.72C8.66988 109.9 8.66988 111.83 9.84988 113.01C11.0299 114.19 12.9599 114.19 14.1399 113.01L22.6199 104.53C22.7399 104.41 22.7399 104.22 22.6199 104.1ZM87.7899 5.64998L30.9899 62.46C24.8799 68.29 24.2499 71.35 23.2399 76.16C22.9499 77.56 22.6199 79.13 22.0999 80.93C20.7099 85.73 12.5499 93.41 6.66988 98.93C5.04988 100.46 3.58988 101.83 2.59988 102.82L2.60988 102.83C2.56988 102.87 2.52988 102.91 2.49988 102.95C-0.25012 106.14 -0.54012 110.04 0.71988 113.54C1.35988 115.32 2.39988 116.98 3.70988 118.37C5.02988 119.78 6.63988 120.93 8.38988 121.66C11.7999 123.09 15.7499 123.02 19.3699 120.38C19.5299 120.29 19.6799 120.17 19.8099 120.03C20.9499 118.89 22.3899 117.35 23.9499 115.69C29.4699 109.79 36.5199 102.27 42.0599 100.58C44.2099 99.92 45.8299 99.58 47.1799 99.29C51.4099 98.4 53.2699 98 59.9799 91.79C60.0399 91.74 60.0999 91.69 60.1599 91.63L116.97 34.83C120.91 30.89 122.88 25.7 122.88 20.5C122.88 15.31 120.91 10.12 116.97 6.16998C113.02 2.21998 107.64 0.109977 102.28 -2.30172e-05C96.9899 -0.100023 91.7099 1.72998 87.7899 5.64998Z" fill="#216EBF"/>
</svg>
