<svg width="123" height="75" viewBox="0 0 123 75" fill="none" xmlns="http://www.w3.org/2000/svg">
<path d="M28.69 53.3799C27.08 53.3799 25.78 52.0799 25.78 50.4699C25.78 48.8599 27.08 47.5599 28.69 47.5599H80.06C80.27 47.5599 80.48 47.5799 80.68 47.6299C82.52 47.9099 84.24 48.4299 85.78 49.2599C87.48 50.1799 88.93 51.4499 90.05 53.1499C93.9 58.9799 93.33 64.3899 90.61 68.3899C88.84 70.9999 86.14 72.9399 83.16 73.9599C80.16 74.9899 76.84 75.0899 73.84 73.9899C69.3 72.3299 65.62 68.0999 65.08 60.4399C64.97 58.8399 66.18 57.4599 67.78 57.3499C69.38 57.2399 70.76 58.4499 70.87 60.0499C71.22 64.9899 73.28 67.6099 75.81 68.5299C77.52 69.1499 79.48 69.0699 81.29 68.4499C83.13 67.8199 84.77 66.6599 85.81 65.1299C87.3 62.9399 87.52 59.8499 85.2 56.3399C84.63 55.4799 83.89 54.8299 83.02 54.3599C82.11 53.8699 81.05 53.5499 79.89 53.3699H28.69V53.3799ZM15.41 27.2099C13.8 27.2099 12.5 25.9099 12.5 24.2999C12.5 22.6899 13.8 21.3899 15.41 21.3899H66.62C67.79 21.2099 68.85 20.8899 69.76 20.3999C70.63 19.9299 71.37 19.2799 71.94 18.4199C74.26 14.9099 74.03 11.8199 72.55 9.62992C71.51 8.09992 69.87 6.93992 68.03 6.30992C66.22 5.68992 64.25 5.60992 62.55 6.22992C60.03 7.14992 57.96 9.76992 57.61 14.7099C57.5 16.3099 56.12 17.5199 54.52 17.4099C52.92 17.2999 51.71 15.9199 51.82 14.3199C52.36 6.65992 56.04 2.42992 60.58 0.76992C63.58 -0.32008 66.9 -0.22008 69.9 0.79992C72.88 1.81992 75.58 3.76992 77.35 6.36992C80.07 10.3699 80.64 15.7799 76.79 21.6099C75.67 23.3099 74.22 24.5799 72.52 25.4999C70.98 26.3299 69.26 26.8499 67.42 27.1299C67.22 27.1699 67.01 27.1999 66.8 27.1999H15.41V27.2099ZM2.91 40.2999C1.3 40.2999 0 38.9899 0 37.3899C0 35.7799 1.3 34.4799 2.91 34.4799H109.98C111.15 34.2999 112.21 33.9799 113.11 33.4899C113.98 33.0199 114.72 32.3699 115.29 31.5099C117.61 27.9999 117.38 24.9099 115.9 22.7199C114.86 21.1899 113.22 20.0299 111.38 19.3999C109.57 18.7799 107.6 18.6999 105.9 19.3199C103.38 20.2399 101.31 22.8599 100.96 27.7999C100.85 29.3999 99.47 30.6099 97.87 30.4999C96.27 30.3899 95.06 29.0099 95.17 27.4099C95.71 19.7499 99.39 15.5199 103.93 13.8599C106.93 12.7699 110.25 12.8699 113.25 13.8899C116.23 14.9099 118.93 16.8599 120.7 19.4599C123.42 23.4599 123.99 28.8699 120.14 34.6999C119.02 36.3999 117.57 37.6699 115.87 38.5899C114.33 39.4199 112.61 39.9399 110.77 40.2199C110.57 40.2599 110.36 40.2899 110.15 40.2899H2.91V40.2999Z" fill="#216EBF"/>
</svg>
